<svg viewBox="0 0 240 240" xmlns="http://www.w3.org/2000/svg"><defs><clipPath id="clipb10"><rect x="0" y="0" width="240" height="240" rx="38" ry="38"/></clipPath></defs><g clip-path="url(#clipb10)"><path d="M149,88 Q188,97 188,144 Q186,163 172,171 Q178,141 168,117 Q161,101 149,99 Z" fill="#8A4B2E"/><path d="M151,93 Q177,103 178,133" stroke="#B66D42" stroke-width="3" fill="none" opacity="0.55"/><path d="M104,148 L104,182 Q120,192 136,182 L136,148 Z" fill="#F2C9A7"/><path d="M104,151 Q120,166 136,151 L136,157 Q120,170 104,157 Z" fill="#d6ad8b" opacity="0.42"/><path d="M22,240 C22,192 66,170 120,170 C174,170 218,192 218,240 Z" fill="#9A5BB0"/><path d="M22,240 C22,210 50,190 78,182 C70,202 66,222 66,240 Z" fill="#824398" opacity="0.34"/><path d="M22,240 C22,192 66,170 120,170 C174,170 218,192 218,240" fill="none" stroke="#ffffff" stroke-width="2" opacity="0.2"/><path d="M96,174 L109,176 L120,194 L131,176 L144,174 L140,205 L100,205 Z" fill="#aa6bc0"/><path d="M109,176 L120,194 L115,178 Z M131,176 L120,194 L125,178 Z" fill="#315A8A"/><path d="M118,190 L120,195 L122,190 L122,213 L118,213 Z" fill="#C8484F"/><ellipse cx="74" cy="117" rx="9" ry="12" fill="#F2C9A7"/><ellipse cx="166" cy="117" rx="9" ry="12" fill="#F2C9A7"/><path d="M74,117 q4,4 4,8" stroke="#d6ad8b" stroke-width="2" fill="none" opacity="0.5"/><path d="M166,117 q-4,4 -4,8" stroke="#d6ad8b" stroke-width="2" fill="none" opacity="0.5"/><path d="M120,59 C94,58 77,77 76,108 C75,133 87,154 105,164 C114,169 126,169 135,164 C153,154 165,133 164,108 C163,77 146,58 120,59 Z" fill="#F2C9A7"/><path d="M143,67 C157,77 162,92 162,110 C162,134 151,153 135,163 C143,148 147,130 146,108 C146,89 143,76 136,66 Z" fill="#d6ad8b" opacity="0.24"/><path d="M72,108 Q68,59 120,52 Q173,58 168,110 Q164,90 150,84 Q136,76 120,82 Q102,76 87,88 Q76,93 72,108 Z" fill="#8A4B2E"/><path d="M91,82 Q119,62 153,78 Q134,72 116,88 Q103,94 91,82 Z" fill="#B66D42" opacity="0.7"/><path d="M90,92 Q102,85 113,91" stroke="#7e3f22" stroke-width="3.5" fill="none" stroke-linecap="round"/><path d="M127,91 Q138,85 150,92" stroke="#7e3f22" stroke-width="3.5" fill="none" stroke-linecap="round"/><path d="M89,110 C95,102 106,101 114,109 C108,117 97,118 89,110 Z" fill="#FFFDFB"/><circle cx="102" cy="109.8" r="5.5" fill="#5A3A28"/><circle cx="102" cy="109.8" r="3" fill="#2A170D"/><circle cx="103.8" cy="107.8" r="1.5" fill="#ffffff"/><path d="M89,109 C96,102 106,102 114,109" stroke="#7E3F22" stroke-width="1.7" fill="none" stroke-linecap="round"/><path d="M126,109 C133,101 145,102 151,110 C143,117 132,117 126,109 Z" fill="#FFFDFB"/><circle cx="138" cy="109.8" r="5.5" fill="#5A3A28"/><circle cx="138" cy="109.8" r="3" fill="#2A170D"/><circle cx="139.8" cy="107.8" r="1.5" fill="#ffffff"/><path d="M126,109 C133,102 145,102 151,110" stroke="#7E3F22" stroke-width="1.7" fill="none" stroke-linecap="round"/><path d="M119,111 C118,119 114,128 117,133 C120,137 126,135 129,130 C126,132 122,132 121,129 Z" fill="#c29977" opacity="0.58"/><path d="M120,113 C118,121 116,128 119,131" stroke="#FFF1E3" stroke-width="1.5" fill="none" stroke-linecap="round" opacity="0.48"/><circle cx="74" cy="128" r="2.4" fill="#C8484F"/><circle cx="166" cy="128" r="2.4" fill="#C8484F"/><path d="M106,139 Q120,151 134,139" stroke="#8A4640" stroke-width="3.1" fill="none" stroke-linecap="round"/></g></svg>
